<svg width="77" height="77" viewBox="0 0 77 77" fill="none" xmlns="http://www.w3.org/2000/svg">
<path fill-rule="evenodd" clip-rule="evenodd" d="M49.4827 8.90025C46.5699 5.98746 42.6193 4.35107 38.5 4.35107C34.3807 4.35107 30.4301 5.98746 27.5173 8.90025C24.6045 11.813 22.9681 15.7636 22.9681 19.8829C22.9681 24.0022 24.6045 27.9528 27.5173 30.8656C30.4301 33.7784 34.3807 35.4148 38.5 35.4148C42.6193 35.4148 46.5699 33.7784 49.4827 30.8656C52.3954 27.9528 54.0318 24.0022 54.0318 19.8829C54.0318 15.7636 52.3954 11.813 49.4827 8.90025ZM69.5637 54.8571C69.5637 46.2757 55.6627 39.3252 38.5 39.3252C21.3373 39.3252 7.43628 46.2757 7.43628 54.8571V62.623L16.4866 65.5267V55.1544C16.4866 54.9494 16.5638 54.7469 16.7126 54.5616C16.8614 54.3763 17.0781 54.2129 17.3469 54.0831C24.6446 50.5616 32.4393 51.3132 37.5849 52.7279V72.2959L37.6228 72.3081H38.5H39.4155V52.7277C44.5612 51.3144 52.3558 50.5614 59.6535 54.0829C59.9224 54.2127 60.139 54.3761 60.2878 54.5614C60.4366 54.7467 60.5138 54.9492 60.5139 55.1542V65.5376L69.5637 62.623V54.8571Z" fill="#D9D9D9"/>
<path fill-rule="evenodd" clip-rule="evenodd" d="M36.3122 53.7779C31.7127 52.5133 24.7452 51.8415 18.222 54.9892C17.9817 55.1052 17.7881 55.2513 17.6551 55.417C17.5221 55.5826 17.4531 55.7636 17.453 55.9469V71.2859C17.4531 71.5201 17.5657 71.7494 17.7777 71.9473C17.9898 72.1452 18.2926 72.3035 18.651 72.4038C19.0094 72.5041 19.4086 72.5423 19.8023 72.5139C20.1959 72.4855 20.5679 72.3918 20.8749 72.2436C26.6081 69.4769 32.8903 70.6227 36.3122 71.9281V53.7779ZM40.7832 53.7777V71.9279C44.2051 70.6213 50.4852 69.4768 56.2205 72.2434C56.5276 72.3916 56.8995 72.4854 57.2932 72.5137C57.6869 72.5421 58.0861 72.5039 58.4445 72.4036C58.8028 72.3033 59.1056 72.145 59.3177 71.9471C59.5298 71.7492 59.6424 71.5199 59.6424 71.2857V55.9467C59.6424 55.7634 59.5734 55.5824 59.4404 55.4168C59.3074 55.2512 59.1137 55.105 58.8734 54.989C52.3502 51.8413 45.3828 52.5144 40.7832 53.7777ZM42.6531 60.2659C42.6531 60.2659 45.8739 59.3381 49.4676 59.3381C53.0613 59.3381 57.2481 61.5228 57.2481 61.5228V62.7497C57.2481 62.7497 52.3258 60.5651 49.4945 60.5651C46.6631 60.5651 42.6262 61.5228 42.6262 61.5228L42.6531 60.2659ZM27.8953 59.0336C31.4851 59.1995 34.6598 60.2749 34.6598 60.2749L34.6286 61.5317C34.6286 61.5317 30.6402 60.3888 27.8119 60.2581C24.9835 60.1274 19.9656 62.0826 19.9656 62.0826L20.0223 60.8569C20.0223 60.8569 24.3055 58.8677 27.8953 59.0336ZM42.6531 63.6774C42.6531 63.6774 45.8739 62.7496 49.4676 62.7496C53.0613 62.7496 57.2481 64.9343 57.2481 64.9343V66.1613C57.2481 66.1613 52.3258 63.9767 49.4945 63.9767C46.6631 63.9767 42.6262 64.9343 42.6262 64.9343L42.6531 63.6774ZM27.7378 62.4416C31.3277 62.6074 34.5023 63.6829 34.5023 63.6829L34.4711 64.9397C34.4711 64.9397 30.4827 63.7968 27.6544 63.6661C24.8261 63.5354 19.8082 65.4905 19.8082 65.4905L19.8648 64.2649C19.8648 64.2649 24.148 62.2757 27.7378 62.4416ZM42.6531 67.089C42.6531 67.089 45.8739 66.1612 49.4676 66.1612C53.0613 66.1612 57.2481 68.3459 57.2481 68.3459V69.5728C57.2481 69.5728 52.3258 67.3882 49.4945 67.3882C46.6631 67.3882 42.6262 68.3459 42.6262 68.3459L42.6531 67.089ZM27.5804 65.849C31.1702 66.0148 34.3449 67.0903 34.3449 67.0903L34.3136 68.3471C34.3136 68.3471 30.3253 67.2042 27.4969 67.0735C24.6686 66.9428 19.6507 68.8979 19.6507 68.8979L19.7073 67.6723C19.7073 67.6723 23.9905 65.6831 27.5804 65.849Z" fill="#D9D9D9"/>
</svg>
